# xmcd
#
# Track frame offsets:
#	150
#	14441
#	31081
#	45456
#	57216
#	72258
#	87803
#	100047
#	121608
#	143715
#	159126
#	170104
#	180791
#
# Disc length: 2631 seconds
#
# Revision: 1
# Processed by: cddbd v1.5PL3 Copyright (c) Steve Scherf et al.
# Submitted via: audiograbber 1.80.04
#
DISCID=910a450d
DTITLE=Lost Country - Down on the Borderline
DYEAR=1900
DGENRE=Classic Rock
TTITLE0=Down on the Borderline
TTITLE1=The Voice That Answered
TTITLE2=Let It Burn
TTITLE3=Searching
TTITLE4=I Got Your Ice Cold NuGrape
TTITLE5=What's In It For Me?
TTITLE6=Playing Safe
TTITLE7=Slow Death
TTITLE8=The Trail  I Always Leave Behind
TTITLE9=The Phantom of Rt. 40
TTITLE10=More and More
TTITLE11=Saying Goodbye to You
TTITLE12=Friends
EXTD=
EXTT0=
EXTT1=
EXTT2=
EXTT3=
EXTT4=
EXTT5=
EXTT6=
EXTT7=
EXTT8=
EXTT9=
EXTT10=
EXTT11=
EXTT12=
PLAYORDER=
